<?xml version="1.0" standalone="no"?>
<!DOCTYPE svg PUBLIC "-//W3C//DTD SVG 20010904//EN"
 "http://www.w3.org/TR/2001/REC-SVG-20010904/DTD/svg10.dtd">
<svg version="1.0" xmlns="http://www.w3.org/2000/svg"
 width="260.000000pt" height="260.000000pt" viewBox="0 0 260.000000 260.000000"
 preserveAspectRatio="xMidYMid meet">
<metadata>
Created by potrace 1.14, written by Peter Selinger 2001-2017
</metadata>
<g transform="translate(0.000000,260.000000) scale(0.100000,-0.100000)"
fill="#000000" stroke="none">
<path d="M593 2588 c-6 -8 -10 -251 -11 -641 0 -719 -8 -939 -37 -1097 -7 -38
-15 -81 -21 -119 -11 -65 -51 -168 -84 -216 -60 -86 -107 -119 -203 -139 -25
-6 -27 -10 -28 -54 -1 -65 -1 -261 0 -296 l1 -29 74 6 c133 12 247 67 336 163
166 179 235 373 275 769 3 33 8 76 10 95 13 104 18 304 19 735 1 264 5 486 10
493 5 8 41 12 121 12 72 0 116 4 121 11 9 15 9 293 0 307 -11 18 -570 17 -583
0z"/>
<path d="M1292 2583 c-11 -23 -10 -2554 1 -2570 11 -17 1082 -19 1092 -2 11
17 9 339 -2 350 -6 6 -146 10 -360 12 -193 1 -355 5 -359 9 -4 4 -7 499 -7
1100 0 709 -3 1097 -10 1106 -7 9 -55 12 -178 12 -150 0 -169 -2 -177 -17z"/>
</g>
</svg>
